<svg
xmlns="http://www.w3.org/2000/svg"
width="178"
height="178"
viewBox="0 0 178 178"
fill="none"
>
<g clip-path="url(#clip0_113_2081)">
  <path
    fill-rule="evenodd"
    clip-rule="evenodd"
    d="M110.029 160.716C114.245 146.3 113.124 138.255 108.998 133.414C104.874 128.569 97.9908 127.069 91.1054 125.574C86.3399 124.566 81.4773 123.537 77.5469 121.627C73.4445 119.637 70.2411 116.633 68.8251 111.618C68.5152 110.431 68.5572 108.813 69.0811 106.92C69.6916 104.295 71.0085 100.997 72.8729 97.3074C79.7465 83.1984 93.5157 62.6567 98.9142 48.4608C100.198 45.2215 100.977 42.2997 101.127 39.9115C101.222 37.8134 100.854 36.1515 99.6911 35.1253C98.7469 34.2905 97.3272 33.9123 95.267 33.8977C91.7858 33.8933 86.9372 35.1548 80.1985 37.8362C74.301 40.1844 68.6734 43.4031 62.8026 45.8969C53.6272 49.8094 44.1521 53.6752 34.8376 55.7124C34.2274 55.8291 33.6695 55.4681 33.5605 54.8897C33.3694 54.2636 33.7917 53.7075 34.4019 53.5907C43.5896 51.5854 52.9311 47.7639 61.9692 43.9017C67.7638 41.35 73.4801 38.165 79.384 35.8055C86.4335 32.9594 91.6021 31.7098 95.2927 31.7291C97.9305 31.6847 99.8432 32.3479 101.157 33.493C102.465 34.6474 103.233 36.3719 103.338 38.5013C103.486 41.3246 102.599 45.0191 100.973 49.2512C95.5482 63.4936 81.7345 84.1122 74.8336 98.2696C73.0623 101.794 71.8237 104.954 71.1889 107.429C70.8002 108.89 70.6589 110.105 70.987 111.067C72.1526 115.368 74.9497 117.934 78.5375 119.678C82.298 121.502 86.9804 122.465 91.6366 123.474C98.9256 125.026 106.29 126.83 110.668 131.998C115.044 137.169 116.68 145.844 112.089 161.31C111.965 161.916 111.346 162.242 110.783 162.081C110.221 161.92 109.822 161.275 110.029 160.716Z"
    fill="white"
  />
  <path
    fill-rule="evenodd"
    clip-rule="evenodd"
    d="M113.193 161.523C113.351 161.436 113.721 161.167 113.972 160.915C115.289 159.74 117.057 157.762 117.596 157.193C122.719 152.359 127.907 146.639 131.448 140.363C131.745 139.837 132.399 139.644 132.894 139.925C133.471 140.252 133.643 140.912 133.346 141.438C129.702 147.896 124.324 153.76 119.188 158.81C118.561 159.342 116.773 161.354 115.444 162.552C114.979 162.99 114.565 163.336 114.244 163.519C113.951 163.653 113.698 163.716 113.477 163.721C113.004 163.788 112.438 163.632 111.952 163.336C111.385 162.991 110.832 162.428 110.354 161.731C109.308 160.305 108.311 158.215 107.507 156.553C107.06 155.608 106.653 154.786 106.317 154.416C103.431 151.235 98.8429 150.3 93.5718 152.695C93.0028 152.932 92.3726 152.697 92.1355 152.153C91.8985 151.608 92.1532 150.964 92.6402 150.68C99.03 147.845 104.421 149.096 107.917 152.932C108.798 153.879 110.049 157.063 111.435 159.429C111.902 160.145 112.321 160.754 112.738 161.172C112.881 161.305 112.948 161.38 113.111 161.477C113.109 161.479 113.19 161.529 113.193 161.523Z"
    fill="white"
  />
</g>
<defs>
  <clipPath id="clip0_113_2081">
    <rect
      width="130"
      height="130"
      fill="white"
      transform="matrix(-0.870892 -0.491474 -0.491474 0.870892 177.107 63.8917)"
    />
  </clipPath>
</defs>
</svg>