<svg
xmlns="http://www.w3.org/2000/svg"
width="41"
height="44"
viewBox="0 0 41 44"
fill="none"
>
<path
  d="M14.8144 39.5428V33.4093C14.8144 31.8493 16.0862 30.5817 17.662 30.5712H23.4342C25.0175 30.5712 26.301 31.8419 26.301 33.4093V33.4093V39.5619C26.3006 40.8864 27.3685 41.969 28.7061 42H32.5542C36.3902 42 39.5 38.9214 39.5 35.1237V35.1237V17.6757C39.4795 16.1817 38.771 14.7787 37.576 13.8661L24.4154 3.3706C22.1099 1.54313 18.8324 1.54313 16.5268 3.3706L3.42405 13.8851C2.22452 14.794 1.51477 16.1993 1.5 17.6947V35.1237C1.5 38.9214 4.60975 42 8.44582 42H12.2939C13.6647 42 14.7759 40.8999 14.7759 39.5428V39.5428"
  stroke="#FF8F2C"
  stroke-width="3"
  stroke-linecap="round"
  stroke-linejoin="round"
/>
</svg>