<svg
xmlns="http://www.w3.org/2000/svg"
width="21"
height="21"
viewBox="0 0 21 21"
fill="none"
>
<mask
  id="mask0_1332_93"
  style="mask-type: luminance"
  maskUnits="userSpaceOnUse"
  x="0"
  y="0"
  width="21"
  height="21"
>
  <path
    fill-rule="evenodd"
    clip-rule="evenodd"
    d="M0.000488281 0.000244141H20.5001V20.4997H0.000488281V0.000244141Z"
    fill="white"
  />
</mask>
<g mask="url(#mask0_1332_93)">
  <path
    fill-rule="evenodd"
    clip-rule="evenodd"
    d="M2.35957 3.06079C2.36157 3.06079 2.31157 3.11279 2.24857 3.17479C2.00657 3.40979 1.50557 3.89879 1.50057 4.92179C1.49257 6.35279 2.43357 9.00979 6.96457 13.5398C11.4746 18.0478 14.1276 18.9998 15.5616 18.9998H15.5826C16.6056 18.9948 17.0936 18.4928 17.3296 18.2518C17.4016 18.1778 17.4596 18.1238 17.5006 18.0898C18.4966 17.0878 19.0066 16.3418 19.0016 15.8638C18.9946 15.3758 18.3876 14.7988 17.5486 14.0008C17.2816 13.7468 16.9916 13.4708 16.6856 13.1648C15.8926 12.3738 15.4996 12.5088 14.6356 12.8128C13.4406 13.2318 11.8006 13.8018 9.25257 11.2528C6.70057 8.70279 7.27157 7.06479 7.68957 5.86979C7.99157 5.00579 8.12957 4.61179 7.33557 3.81779C7.02457 3.50779 6.74557 3.21379 6.48857 2.94379C5.69557 2.10979 5.12357 1.50679 4.63857 1.49979H4.63057C4.15157 1.49979 3.40757 2.01179 2.35457 3.06479C2.35757 3.06179 2.35857 3.06079 2.35957 3.06079ZM15.5626 20.4998C13.0706 20.4998 9.82157 18.5158 5.90457 14.6008C1.97257 10.6698 -0.0144274 7.41079 0.000572575 4.91379C0.00957257 3.26379 0.874573 2.41879 1.19957 2.10179C1.21657 2.08079 1.27457 2.02379 1.29457 2.00379C2.72857 0.568787 3.69557 -0.0112129 4.65757 -0.00021287C5.77457 0.0147871 6.56957 0.850787 7.57557 1.90979C7.82457 2.17179 8.09457 2.45679 8.39557 2.75679C9.85557 4.21679 9.43957 5.40779 9.10557 6.36379C8.74157 7.40679 8.42657 8.30679 10.3126 10.1928C12.2006 12.0788 13.1006 11.7638 14.1396 11.3968C15.0966 11.0628 16.2846 10.6448 17.7466 12.1048C18.0426 12.4008 18.3236 12.6678 18.5826 12.9148C19.6466 13.9258 20.4866 14.7248 20.5006 15.8448C20.5126 16.7998 19.9326 17.7728 18.5006 19.2058L17.8666 18.7758L18.4026 19.2998C18.0856 19.6248 17.2416 20.4908 15.5906 20.4998H15.5626Z"
    fill="white"
  />
</g>
</svg>